<?xml version="1.0" encoding="UTF-8"?>
<!DOCTYPE svg PUBLIC "-//W3C//DTD SVG 1.1//EN" "http://www.w3.org/Graphics/SVG/1.1/DTD/svg11.dtd">
<svg xmlns="http://www.w3.org/2000/svg" version="1.1" width="50px" height="50px" style="shape-rendering:geometricPrecision; text-rendering:geometricPrecision; image-rendering:optimizeQuality; fill-rule:evenodd; clip-rule:evenodd" xmlns:xlink="http://www.w3.org/1999/xlink">
<g><path style="opacity:0.714" fill="#4c4c4c" d="M 20.5,1.5 C 29.4867,0.66502 31.8201,4.16502 27.5,12C 18.4297,13.1356 16.0963,9.63557 20.5,1.5 Z M 21.5,4.5 C 23.1667,4.5 24.8333,4.5 26.5,4.5C 26.5,6.16667 26.5,7.83333 26.5,9.5C 24.8333,9.5 23.1667,9.5 21.5,9.5C 21.5,7.83333 21.5,6.16667 21.5,4.5 Z"/></g>
<g><path style="opacity:0.99" fill="#4c4c4c" d="M 13.5,15.5 C 18.8333,15.5 24.1667,15.5 29.5,15.5C 29.5,23.5 29.5,31.5 29.5,39.5C 31.5,39.5 33.5,39.5 35.5,39.5C 35.5,42.1667 35.5,44.8333 35.5,47.5C 28.1667,47.5 20.8333,47.5 13.5,47.5C 13.5,44.8333 13.5,42.1667 13.5,39.5C 15.5,39.5 17.5,39.5 19.5,39.5C 19.5,34.1667 19.5,28.8333 19.5,23.5C 17.5,23.5 15.5,23.5 13.5,23.5C 13.5,20.8333 13.5,18.1667 13.5,15.5 Z M 15.5,17.5 C 19.5,17.5 23.5,17.5 27.5,17.5C 27.5,25.5 27.5,33.5 27.5,41.5C 29.5,41.5 31.5,41.5 33.5,41.5C 33.5,42.8333 33.5,44.1667 33.5,45.5C 27.5,45.5 21.5,45.5 15.5,45.5C 15.5,44.1667 15.5,42.8333 15.5,41.5C 17.5,41.5 19.5,41.5 21.5,41.5C 21.5,34.8333 21.5,28.1667 21.5,21.5C 19.5,21.5 17.5,21.5 15.5,21.5C 15.5,20.1667 15.5,18.8333 15.5,17.5 Z"/></g>
</svg>
